# Created by 3DAce v2.72


g
v -0.500000 0.425000 -2.500000
v -0.500000 0.425000 0.500000
v 0.500000 0.425000 -2.500000
v 0.500000 0.425000 0.500000
v 0.500000 -0.575000 -2.500000
v 0.500000 -0.575000 0.500000
v -0.500000 -0.575000 -2.500000
v -0.500000 -0.575000 0.500000
v 2.604495 -0.043068 -0.749005
v 0.045889 0.477876 0.728206
v 2.104495 -0.043068 -1.615031
v -0.454111 0.477876 -0.137819
v 1.954111 -1.027876 -1.528206
v -0.604495 -0.506931 -0.050995
v 2.454111 -1.027876 -0.662181
v -0.104495 -0.506931 0.815031
# 16 vertices

vt 0.687442 0.502973
vt 0.753708 0.502973
vt 0.753708 0.683938
vt 0.687631 0.683979
vt 0.757811 0.503378
vt 0.809436 0.503224
vt 0.809502 0.682499
vt 0.757886 0.683090
vt 0.811426 0.502586
vt 0.875046 0.502586
vt 0.875046 0.684715
vt 0.812422 0.684421
vt 0.629280 0.504062
vt 0.685631 0.503717
vt 0.685631 0.683714
vt 0.629407 0.683630
vt 0.692221 0.687269
vt 0.750797 0.686920
vt 0.749009 0.744092
vt 0.692155 0.743622
vt 0.756184 0.689406
vt 0.809012 0.689406
vt 0.809502 0.744732
vt 0.755519 0.743876
vt 0.561023 0.184708
vt 0.627100 0.184666
vt 0.627100 0.003701
vt 0.560835 0.003701
vt 0.631279 0.183819
vt 0.682894 0.183228
vt 0.682829 0.003953
vt 0.631203 0.004106
vt 0.685814 0.185150
vt 0.748438 0.185443
vt 0.748438 0.003315
vt 0.684819 0.003315
vt 0.502800 0.184359
vt 0.559024 0.184443
vt 0.559024 0.004446
vt 0.502672 0.004790
vt 0.565547 0.244350
vt 0.622401 0.244820
vt 0.624189 0.187649
vt 0.565613 0.187998
vt 0.628911 0.244605
vt 0.682895 0.245461
vt 0.682404 0.190134
vt 0.629576 0.190134
# 48 texture vertices

vn 0.000000 1.000000 0.000000
vn 0.000000 1.000000 0.000000
vn 0.000000 1.000000 0.000000
vn 0.000000 1.000000 0.000000
vn 1.000000 0.000000 0.000000
vn 1.000000 0.000000 0.000000
vn 1.000000 0.000000 0.000000
vn 1.000000 0.000000 0.000000
vn 0.000000 -1.000000 0.000000
vn 0.000000 -1.000000 0.000000
vn 0.000000 -1.000000 0.000000
vn 0.000000 -1.000000 0.000000
vn -1.000000 0.000000 0.000000
vn -1.000000 0.000000 0.000000
vn -1.000000 0.000000 0.000000
vn -1.000000 0.000000 0.000000
vn 0.000000 0.000000 -1.000000
vn 0.000000 0.000000 -1.000000
vn 0.000000 0.000000 -1.000000
vn 0.000000 0.000000 -1.000000
vn -0.000000 0.000000 1.000000
vn -0.000000 0.000000 1.000000
vn -0.000000 0.000000 1.000000
vn -0.000000 0.000000 1.000000
vn 0.150384 0.984808 -0.086824
vn 0.150384 0.984808 -0.086824
vn 0.150384 0.984808 -0.086824
vn 0.150384 0.984808 -0.086824
vn -0.500000 -0.000000 -0.866025
vn -0.500000 -0.000000 -0.866025
vn -0.500000 -0.000000 -0.866025
vn -0.500000 -0.000000 -0.866025
vn -0.150384 -0.984808 0.086824
vn -0.150384 -0.984808 0.086824
vn -0.150384 -0.984808 0.086824
vn -0.150384 -0.984808 0.086824
vn 0.500000 0.000000 0.866025
vn 0.500000 0.000000 0.866025
vn 0.500000 0.000000 0.866025
vn 0.500000 0.000000 0.866025
vn 0.852869 -0.173648 -0.492404
vn 0.852869 -0.173648 -0.492404
vn 0.852869 -0.173648 -0.492404
vn 0.852869 -0.173648 -0.492404
vn -0.852869 0.173648 0.492404
vn -0.852869 0.173648 0.492404
vn -0.852869 0.173648 0.492404
vn -0.852869 0.173648 0.492404
# 48 vertex normals

g rightarm
f 2/1/1 4/2/2 3/3/3 1/4/4
f 4/5/5 6/6/6 5/7/7 3/8/8
f 6/9/9 8/10/10 7/11/11 5/12/12
f 8/13/13 2/14/14 1/15/15 7/16/16
f 1/17/17 3/18/18 5/19/19 7/20/20
f 8/21/21 6/22/22 4/23/23 2/24/24
# 6 elements

g leftarm
f 9/25/25 11/26/26 12/27/27 10/28/28
f 11/29/29 13/30/30 14/31/31 12/32/32
f 13/33/33 15/34/34 16/35/35 14/36/36
f 15/37/37 9/38/38 10/39/39 16/40/40
f 15/41/41 13/42/42 11/43/43 9/44/44
f 10/45/45 12/46/46 14/47/47 16/48/48
# 6 elements

