# Created by 3DAce v2.72


g
v -0.050000 0.050000 0.050000
v -0.050000 -0.050000 0.050000
v 0.050000 0.050000 0.050000
v 0.050000 -0.050000 0.050000
v 0.050000 0.050000 -0.050000
v 0.050000 -0.050000 -0.050000
v -0.050000 0.050000 -0.050000
v -0.050000 -0.050000 -0.050000
v -0.010000 1.000000 0.010000
v -0.010000 0.000000 0.010000
v 0.010000 1.000000 0.010000
v 0.010000 0.000000 0.010000
v 0.010000 1.000000 -0.010000
v 0.010000 0.000000 -0.010000
v -0.010000 1.000000 -0.010000
v -0.010000 0.000000 -0.010000
v -0.025000 0.996014 0.025000
v -0.025000 0.976014 0.025000
v 0.025000 0.996014 0.025000
v 0.025000 0.976014 0.025000
v 0.025000 0.996014 -0.025000
v 0.025000 0.976014 -0.025000
v -0.025000 0.996014 -0.025000
v -0.025000 0.976014 -0.025000
v 0.006529 0.985753 0.005000
v 0.006529 0.735753 0.005000
v 0.256529 0.985753 0.005000
v 0.256529 0.735753 0.005000
v 0.256529 0.985753 -0.005000
v 0.256529 0.735753 -0.005000
v 0.006529 0.985753 -0.005000
v 0.006529 0.735753 -0.005000
# 32 vertices

vt 0.255400 0.835950
vt 0.292110 0.835950
vt 0.292110 0.872660
vt 0.255400 0.835950
vt 0.255400 0.872660
vt 0.255400 0.835950
vt 0.292110 0.872660
vt 0.255400 0.872660
vt 0.255400 0.783820
vt 0.292110 0.783820
vt 0.292110 0.820530
vt 0.255400 0.783820
vt 0.255400 0.820530
vt 0.255400 0.783820
vt 0.292110 0.820530
vt 0.255400 0.820530
vt 0.307530 0.835950
vt 0.344240 0.835950
vt 0.344240 0.872660
vt 0.307530 0.835950
vt 0.307530 0.872660
vt 0.307530 0.835950
vt 0.344240 0.872660
vt 0.307530 0.872660
vt 0.307530 0.783820
vt 0.344240 0.783820
vt 0.344240 0.820530
vt 0.307530 0.783820
vt 0.307530 0.820530
vt 0.307530 0.783820
vt 0.344240 0.820530
vt 0.307530 0.820530
vt 0.324410 0.943140
vt 0.361120 0.943140
vt 0.361120 0.979850
vt 0.324410 0.943140
vt 0.324410 0.979850
vt 0.324410 0.943140
vt 0.361120 0.979850
vt 0.324410 0.979850
vt 0.324410 0.728760
vt 0.361120 0.728760
vt 0.361120 0.765470
vt 0.324410 0.728760
vt 0.324410 0.765470
vt 0.324410 0.728760
vt 0.361120 0.765470
vt 0.324410 0.765470
vt 0.020150 0.020150
vt 0.039350 0.020150
vt 0.039350 0.979850
vt 0.020150 0.020150
vt 0.020150 0.979850
vt 0.020150 0.020150
vt 0.039350 0.979850
vt 0.020150 0.979850
vt 0.079650 0.020150
vt 0.098850 0.020150
vt 0.098850 0.979850
vt 0.079650 0.020150
vt 0.079650 0.979850
vt 0.079650 0.020150
vt 0.098850 0.979850
vt 0.079650 0.979850
vt 0.139160 0.020150
vt 0.158350 0.020150
vt 0.158350 0.979850
vt 0.139160 0.020150
vt 0.139160 0.979850
vt 0.139160 0.020150
vt 0.158350 0.979850
vt 0.139160 0.979850
vt 0.198660 0.020150
vt 0.217850 0.020150
vt 0.217850 0.979850
vt 0.198660 0.020150
vt 0.198660 0.979850
vt 0.198660 0.020150
vt 0.217850 0.979850
vt 0.198660 0.979850
vt 0.346450 0.020150
vt 0.365640 0.020150
vt 0.365640 0.039350
vt 0.346450 0.020150
vt 0.346450 0.039350
vt 0.346450 0.020150
vt 0.365640 0.039350
vt 0.346450 0.039350
vt 0.324410 0.672230
vt 0.331760 0.672230
vt 0.331760 0.679570
vt 0.324410 0.672230
vt 0.324410 0.679570
vt 0.324410 0.672230
vt 0.331760 0.679570
vt 0.324410 0.679570
vt 0.324410 0.650940
vt 0.342770 0.650940
vt 0.342770 0.658280
vt 0.324410 0.650940
vt 0.324410 0.658280
vt 0.324410 0.650940
vt 0.342770 0.658280
vt 0.324410 0.658280
vt 0.324410 0.631850
vt 0.342770 0.631850
vt 0.342770 0.639190
vt 0.324410 0.631850
vt 0.324410 0.639190
vt 0.324410 0.631850
vt 0.342770 0.639190
vt 0.324410 0.639190
vt 0.258160 0.020150
vt 0.306140 0.020150
vt 0.306140 0.039350
vt 0.258160 0.020150
vt 0.258160 0.039350
vt 0.258160 0.020150
vt 0.306140 0.039350
vt 0.258160 0.039350
vt 0.324410 0.920380
vt 0.342770 0.920380
vt 0.342770 0.927720
vt 0.324410 0.920380
vt 0.324410 0.927720
vt 0.324410 0.920380
vt 0.342770 0.927720
vt 0.324410 0.927720
vt 0.324410 0.694990
vt 0.342770 0.694990
vt 0.342770 0.713340
vt 0.324410 0.694990
vt 0.324410 0.713340
vt 0.324410 0.694990
vt 0.342770 0.713340
vt 0.324410 0.713340
vt 0.324410 0.886610
vt 0.342770 0.886610
vt 0.342770 0.904960
vt 0.324410 0.886610
vt 0.324410 0.904960
vt 0.324410 0.886610
vt 0.342770 0.904960
vt 0.324410 0.904960
vt 0.386140 0.979850
vt 0.626060 0.979850
vt 0.626060 0.739920
vt 0.386140 0.979850
vt 0.386140 0.739920
vt 0.386140 0.979850
vt 0.626060 0.739920
vt 0.386140 0.739920
vt 0.386140 0.699620
vt 0.395740 0.699620
vt 0.395740 0.459690
vt 0.386140 0.699620
vt 0.386140 0.459690
vt 0.386140 0.699620
vt 0.395740 0.459690
vt 0.386140 0.459690
vt 0.386140 0.419390
vt 0.626060 0.419390
vt 0.626060 0.179460
vt 0.386140 0.419390
vt 0.386140 0.179460
vt 0.386140 0.419390
vt 0.626060 0.179460
vt 0.386140 0.179460
vt 0.436040 0.699620
vt 0.445640 0.698190
vt 0.445640 0.458270
vt 0.436040 0.699620
vt 0.436040 0.459690
vt 0.436040 0.699620
vt 0.445640 0.458270
vt 0.436040 0.459690
vt 0.386140 0.139160
vt 0.626060 0.139160
vt 0.626060 0.129560
vt 0.386140 0.139160
vt 0.386140 0.129560
vt 0.386140 0.139160
vt 0.626060 0.129560
vt 0.386140 0.129560
vt 0.386140 0.089250
vt 0.626060 0.089250
vt 0.626060 0.079650
vt 0.386140 0.089250
vt 0.386140 0.079650
vt 0.386140 0.089250
vt 0.626060 0.079650
vt 0.386140 0.079650
# 192 texture vertices

vn 0.000000 0.000000 1.000000
vn 0.000000 0.000000 1.000000
vn 0.000000 0.000000 1.000000
vn 0.000000 0.000000 1.000000
vn 0.000000 -0.000000 1.000000
vn 0.000000 0.000000 1.000000
vn 0.000000 0.000000 1.000000
vn 0.000000 -0.000000 1.000000
vn 1.000000 0.000000 -0.000000
vn 1.000000 0.000000 -0.000000
vn 1.000000 0.000000 -0.000000
vn 1.000000 0.000000 -0.000000
vn 1.000000 0.000000 -0.000000
vn 1.000000 0.000000 -0.000000
vn 1.000000 0.000000 -0.000000
vn 1.000000 0.000000 -0.000000
vn 0.000000 0.000000 -1.000000
vn 0.000000 0.000000 -1.000000
vn 0.000000 0.000000 -1.000000
vn 0.000000 0.000000 -1.000000
vn 0.000000 0.000000 -1.000000
vn 0.000000 0.000000 -1.000000
vn 0.000000 0.000000 -1.000000
vn 0.000000 0.000000 -1.000000
vn -1.000000 0.000000 -0.000000
vn -1.000000 -0.000000 -0.000000
vn -1.000000 0.000000 -0.000000
vn -1.000000 0.000000 -0.000000
vn -1.000000 0.000000 -0.000000
vn -1.000000 0.000000 -0.000000
vn -1.000000 0.000000 -0.000000
vn -1.000000 0.000000 -0.000000
vn 0.000000 1.000000 0.000000
vn 0.000000 1.000000 -0.000000
vn 0.000000 1.000000 0.000000
vn 0.000000 1.000000 0.000000
vn 0.000000 1.000000 0.000000
vn 0.000000 1.000000 0.000000
vn 0.000000 1.000000 0.000000
vn 0.000000 1.000000 0.000000
vn -0.000000 -1.000000 0.000000
vn -0.000000 -1.000000 -0.000000
vn -0.000000 -1.000000 0.000000
vn -0.000000 -1.000000 0.000000
vn -0.000000 -1.000000 0.000000
vn -0.000000 -1.000000 0.000000
vn -0.000000 -1.000000 0.000000
vn -0.000000 -1.000000 0.000000
vn 0.000000 0.000000 1.000000
vn 0.000000 0.000000 1.000000
vn 0.000000 0.000000 1.000000
vn 0.000000 0.000000 1.000000
vn 0.000000 -0.000000 1.000000
vn 0.000000 0.000000 1.000000
vn 0.000000 0.000000 1.000000
vn 0.000000 -0.000000 1.000000
vn 1.000000 0.000000 -0.000000
vn 1.000000 0.000000 -0.000000
vn 1.000000 0.000000 -0.000000
vn 1.000000 0.000000 -0.000000
vn 1.000000 0.000000 -0.000000
vn 1.000000 0.000000 -0.000000
vn 1.000000 0.000000 -0.000000
vn 1.000000 0.000000 -0.000000
vn 0.000000 0.000000 -1.000000
vn 0.000000 0.000000 -1.000000
vn 0.000000 0.000000 -1.000000
vn 0.000000 0.000000 -1.000000
vn 0.000000 0.000000 -1.000000
vn 0.000000 0.000000 -1.000000
vn 0.000000 0.000000 -1.000000
vn 0.000000 0.000000 -1.000000
vn -1.000000 0.000000 -0.000000
vn -1.000000 -0.000000 -0.000000
vn -1.000000 0.000000 -0.000000
vn -1.000000 0.000000 -0.000000
vn -1.000000 0.000000 -0.000000
vn -1.000000 0.000000 -0.000000
vn -1.000000 0.000000 -0.000000
vn -1.000000 0.000000 -0.000000
vn 0.000000 1.000000 0.000000
vn 0.000000 1.000000 -0.000000
vn 0.000000 1.000000 0.000000
vn 0.000000 1.000000 0.000000
vn 0.000000 1.000000 0.000000
vn 0.000000 1.000000 0.000000
vn 0.000000 1.000000 0.000000
vn 0.000000 1.000000 0.000000
vn -0.000000 -1.000000 0.000000
vn -0.000000 -1.000000 -0.000000
vn -0.000000 -1.000000 0.000000
vn -0.000000 -1.000000 0.000000
vn -0.000000 -1.000000 0.000000
vn -0.000000 -1.000000 0.000000
vn -0.000000 -1.000000 0.000000
vn -0.000000 -1.000000 0.000000
vn 0.000000 0.000000 1.000000
vn 0.000000 0.000000 1.000000
vn 0.000000 0.000000 1.000000
vn 0.000000 0.000000 1.000000
vn 0.000000 -0.000000 1.000000
vn 0.000000 0.000000 1.000000
vn 0.000000 0.000000 1.000000
vn 0.000000 -0.000000 1.000000
vn 1.000000 0.000000 -0.000000
vn 1.000000 0.000000 -0.000000
vn 1.000000 0.000000 -0.000000
vn 1.000000 0.000000 -0.000000
vn 1.000000 0.000000 -0.000000
vn 1.000000 0.000000 -0.000000
vn 1.000000 0.000000 -0.000000
vn 1.000000 0.000000 -0.000000
vn 0.000000 0.000000 -1.000000
vn 0.000000 0.000000 -1.000000
vn 0.000000 0.000000 -1.000000
vn 0.000000 0.000000 -1.000000
vn 0.000000 0.000000 -1.000000
vn 0.000000 0.000000 -1.000000
vn 0.000000 0.000000 -1.000000
vn 0.000000 0.000000 -1.000000
vn -1.000000 0.000000 -0.000000
vn -1.000000 -0.000000 -0.000000
vn -1.000000 0.000000 -0.000000
vn -1.000000 0.000000 -0.000000
vn -1.000000 0.000000 -0.000000
vn -1.000000 0.000000 -0.000000
vn -1.000000 0.000000 -0.000000
vn -1.000000 0.000000 -0.000000
vn 0.000000 1.000000 0.000000
vn 0.000000 1.000000 -0.000000
vn 0.000000 1.000000 0.000000
vn 0.000000 1.000000 0.000000
vn 0.000000 1.000000 0.000000
vn 0.000000 1.000000 0.000000
vn 0.000000 1.000000 0.000000
vn 0.000000 1.000000 0.000000
vn -0.000000 -1.000000 0.000000
vn -0.000000 -1.000000 -0.000000
vn -0.000000 -1.000000 0.000000
vn -0.000000 -1.000000 0.000000
vn -0.000000 -1.000000 0.000000
vn -0.000000 -1.000000 0.000000
vn -0.000000 -1.000000 0.000000
vn -0.000000 -1.000000 0.000000
vn 0.000000 0.000000 1.000000
vn 0.000000 0.000000 1.000000
vn 0.000000 0.000000 1.000000
vn 0.000000 0.000000 1.000000
vn 0.000000 -0.000000 1.000000
vn 0.000000 0.000000 1.000000
vn 0.000000 0.000000 1.000000
vn 0.000000 -0.000000 1.000000
vn 1.000000 0.000000 -0.000000
vn 1.000000 0.000000 -0.000000
vn 1.000000 0.000000 -0.000000
vn 1.000000 0.000000 -0.000000
vn 1.000000 0.000000 -0.000000
vn 1.000000 0.000000 -0.000000
vn 1.000000 0.000000 -0.000000
vn 1.000000 0.000000 -0.000000
vn 0.000000 0.000000 -1.000000
vn 0.000000 0.000000 -1.000000
vn 0.000000 0.000000 -1.000000
vn 0.000000 0.000000 -1.000000
vn 0.000000 0.000000 -1.000000
vn 0.000000 0.000000 -1.000000
vn 0.000000 0.000000 -1.000000
vn 0.000000 0.000000 -1.000000
vn -1.000000 0.000000 -0.000000
vn -1.000000 -0.000000 -0.000000
vn -1.000000 0.000000 -0.000000
vn -1.000000 0.000000 -0.000000
vn -1.000000 0.000000 -0.000000
vn -1.000000 0.000000 -0.000000
vn -1.000000 0.000000 -0.000000
vn -1.000000 0.000000 -0.000000
vn 0.000000 1.000000 0.000000
vn 0.000000 1.000000 -0.000000
vn 0.000000 1.000000 0.000000
vn 0.000000 1.000000 0.000000
vn 0.000000 1.000000 0.000000
vn 0.000000 1.000000 0.000000
vn 0.000000 1.000000 0.000000
vn 0.000000 1.000000 0.000000
vn -0.000000 -1.000000 0.000000
vn -0.000000 -1.000000 -0.000000
vn -0.000000 -1.000000 0.000000
vn -0.000000 -1.000000 0.000000
vn -0.000000 -1.000000 0.000000
vn -0.000000 -1.000000 0.000000
vn -0.000000 -1.000000 0.000000
vn -0.000000 -1.000000 0.000000
# 192 vertex normals

g mat1
f 2/1/1 4/2/2 3/3/3
f 1/5/5 2/6/6 3/7/7
f 4/9/9 6/10/10 5/11/11
f 3/13/13 4/14/14 5/15/15
f 6/17/17 8/18/18 7/19/19
f 5/21/21 6/22/22 7/23/23
f 8/25/25 2/26/26 1/27/27
f 7/29/29 8/30/30 1/31/31
f 1/33/33 3/34/34 5/35/35
f 7/37/37 1/38/38 5/39/39
f 8/41/41 6/42/42 4/43/43
f 2/45/45 8/46/46 4/47/47
f 10/49/49 12/50/50 11/51/51
f 9/53/53 10/54/54 11/55/55
f 12/57/57 14/58/58 13/59/59
f 11/61/61 12/62/62 13/63/63
f 14/65/65 16/66/66 15/67/67
f 13/69/69 14/70/70 15/71/71
f 16/73/73 10/74/74 9/75/75
f 15/77/77 16/78/78 9/79/79
f 9/81/81 11/82/82 13/83/83
f 15/85/85 9/86/86 13/87/87
f 16/89/89 14/90/90 12/91/91
f 10/93/93 16/94/94 12/95/95
f 18/97/97 20/98/98 19/99/99
f 17/101/101 18/102/102 19/103/103
f 20/105/105 22/106/106 21/107/107
f 19/109/109 20/110/110 21/111/111
f 22/113/113 24/114/114 23/115/115
f 21/117/117 22/118/118 23/119/119
f 24/121/121 18/122/122 17/123/123
f 23/125/125 24/126/126 17/127/127
f 17/129/129 19/130/130 21/131/131
f 23/133/133 17/134/134 21/135/135
f 24/137/137 22/138/138 20/139/139
f 18/141/141 24/142/142 20/143/143
# 36 elements

g mat2
f 26/145/145 28/146/146 27/147/147
f 25/149/149 26/150/150 27/151/151
f 28/153/153 30/154/154 29/155/155
f 27/157/157 28/158/158 29/159/159
f 30/161/161 32/162/162 31/163/163
f 29/165/165 30/166/166 31/167/167
f 32/169/169 26/170/170 25/171/171
f 31/173/173 32/174/174 25/175/175
f 25/177/177 27/178/178 29/179/179
f 31/181/181 25/182/182 29/183/183
f 32/185/185 30/186/186 28/187/187
f 26/189/189 32/190/190 28/191/191
# 12 elements

