# Created by 3DAce v2.72


g
v -0.025000 0.025000 0.050000
v -0.025000 -0.025000 0.050000
v 0.025000 0.025000 0.050000
v 0.025000 -0.025000 0.050000
v 0.025000 0.025000 -0.050000
v 0.025000 -0.025000 -0.050000
v -0.025000 0.025000 -0.050000
v -0.025000 -0.025000 -0.050000
v -0.015000 0.015000 0.070000
v -0.015000 -0.015000 0.070000
v 0.015000 0.015000 0.070000
v 0.015000 -0.015000 0.070000
v 0.025000 0.025000 0.050000
v 0.025000 -0.025000 0.050000
v -0.025000 0.025000 0.050000
v -0.025000 -0.025000 0.050000
v -0.015000 0.015000 0.090000
v -0.015000 -0.015000 0.090000
v 0.015000 0.015000 0.090000
v 0.015000 -0.015000 0.090000
v 0.015000 0.015000 0.070000
v 0.015000 -0.015000 0.070000
v -0.015000 0.015000 0.070000
v -0.015000 -0.015000 0.070000
v -0.020000 0.020000 -0.050000
v -0.020000 -0.020000 -0.050000
v 0.020000 0.020000 -0.050000
v 0.020000 -0.020000 -0.050000
v 0.020000 0.020000 -0.055000
v 0.020000 -0.020000 -0.055000
v -0.020000 0.020000 -0.055000
v -0.020000 -0.020000 -0.055000
v -0.025000 0.025000 -0.055000
v -0.025000 -0.025000 -0.055000
v 0.025000 0.025000 -0.055000
v 0.025000 -0.025000 -0.055000
v 0.025000 0.025000 -0.060000
v 0.025000 -0.025000 -0.060000
v -0.025000 0.025000 -0.060000
v -0.025000 -0.025000 -0.060000
# 40 vertices

vt 0.000000 0.000000
vt 1.000000 0.000000
vt 1.000000 1.000000
vt 0.000000 1.000000
vt 0.000000 0.000000
vt 1.000000 0.000000
vt 1.000000 1.000000
vt 0.000000 1.000000
vt 0.000000 0.000000
vt 1.000000 0.000000
vt 1.000000 1.000000
vt 0.000000 1.000000
vt 0.000000 0.000000
vt 1.000000 0.000000
vt 1.000000 1.000000
vt 0.000000 1.000000
vt 0.000000 0.000000
vt 1.000000 0.000000
vt 1.000000 1.000000
vt 0.000000 1.000000
vt 0.000000 0.000000
vt 1.000000 0.000000
vt 1.000000 1.000000
vt 0.000000 1.000000
vt 0.000000 0.000000
vt 1.000000 0.000000
vt 1.000000 1.000000
vt 0.000000 1.000000
vt 0.000000 0.000000
vt 1.000000 0.000000
vt 1.000000 1.000000
vt 0.000000 1.000000
vt 0.000000 0.000000
vt 1.000000 0.000000
vt 1.000000 1.000000
vt 0.000000 1.000000
vt 0.000000 0.000000
vt 1.000000 0.000000
vt 1.000000 1.000000
vt 0.000000 1.000000
vt 0.000000 0.000000
vt 1.000000 0.000000
vt 1.000000 1.000000
vt 0.000000 1.000000
vt 0.000000 0.000000
vt 1.000000 0.000000
vt 1.000000 1.000000
vt 0.000000 1.000000
vt 0.000000 0.000000
vt 1.000000 0.000000
vt 1.000000 1.000000
vt 0.000000 1.000000
vt 0.000000 0.000000
vt 1.000000 0.000000
vt 1.000000 1.000000
vt 0.000000 1.000000
vt 0.000000 0.000000
vt 1.000000 0.000000
vt 1.000000 1.000000
vt 0.000000 1.000000
vt 0.000000 0.000000
vt 1.000000 0.000000
vt 1.000000 1.000000
vt 0.000000 1.000000
vt 0.000000 0.000000
vt 1.000000 0.000000
vt 1.000000 1.000000
vt 0.000000 1.000000
vt 0.000000 0.000000
vt 1.000000 0.000000
vt 1.000000 1.000000
vt 0.000000 1.000000
vt 0.000000 0.000000
vt 1.000000 0.000000
vt 1.000000 1.000000
vt 0.000000 1.000000
vt 0.000000 0.000000
vt 1.000000 0.000000
vt 1.000000 1.000000
vt 0.000000 1.000000
vt 0.000000 0.000000
vt 1.000000 0.000000
vt 1.000000 1.000000
vt 0.000000 1.000000
vt 0.000000 0.000000
vt 1.000000 0.000000
vt 1.000000 1.000000
vt 0.000000 1.000000
vt 0.000000 0.000000
vt 1.000000 0.000000
vt 1.000000 1.000000
vt 0.000000 1.000000
vt 0.000000 0.000000
vt 1.000000 0.000000
vt 1.000000 1.000000
vt 0.000000 1.000000
vt 0.000000 0.000000
vt 1.000000 0.000000
vt 1.000000 1.000000
vt 0.000000 1.000000
vt 0.000000 0.000000
vt 1.000000 0.000000
vt 1.000000 1.000000
vt 0.000000 1.000000
vt 0.000000 0.000000
vt 1.000000 0.000000
vt 1.000000 1.000000
vt 0.000000 1.000000
vt 0.000000 0.000000
vt 1.000000 0.000000
vt 1.000000 1.000000
vt 0.000000 1.000000
vt 0.000000 0.000000
vt 1.000000 0.000000
vt 1.000000 1.000000
vt 0.000000 1.000000
vt 0.000000 0.000000
vt 1.000000 0.000000
vt 1.000000 1.000000
vt 0.000000 1.000000
# 120 texture vertices

vn -0.000000 0.000000 1.000000
vn -0.000000 0.000000 1.000000
vn -0.000000 0.000000 1.000000
vn -0.000000 0.000000 1.000000
vn 1.000000 0.000000 0.000000
vn 1.000000 0.000000 0.000000
vn 1.000000 0.000000 0.000000
vn 1.000000 0.000000 0.000000
vn -0.000000 0.000000 -1.000000
vn -0.000000 0.000000 -1.000000
vn -0.000000 0.000000 -1.000000
vn -0.000000 0.000000 -1.000000
vn -1.000000 0.000000 0.000000
vn -1.000000 0.000000 0.000000
vn -1.000000 0.000000 0.000000
vn -1.000000 0.000000 0.000000
vn 0.000000 1.000000 0.000000
vn 0.000000 1.000000 0.000000
vn 0.000000 1.000000 0.000000
vn 0.000000 1.000000 0.000000
vn 0.000000 -1.000000 0.000000
vn 0.000000 -1.000000 0.000000
vn 0.000000 -1.000000 0.000000
vn 0.000000 -1.000000 0.000000
vn -0.000000 0.000000 1.000000
vn -0.000000 0.000000 1.000000
vn -0.000000 0.000000 1.000000
vn -0.000000 0.000000 1.000000
vn 0.894427 0.000000 0.447213
vn 0.894427 0.000000 0.447213
vn 0.894427 0.000000 0.447213
vn 0.894427 0.000000 0.447213
vn -0.000000 0.000000 -1.000000
vn -0.000000 0.000000 -1.000000
vn -0.000000 0.000000 -1.000000
vn -0.000000 0.000000 -1.000000
vn -0.894427 0.000000 0.447213
vn -0.894427 0.000000 0.447213
vn -0.894427 0.000000 0.447213
vn -0.894427 0.000000 0.447213
vn 0.000000 0.894427 0.447213
vn 0.000000 0.894427 0.447213
vn 0.000000 0.894427 0.447213
vn 0.000000 0.894427 0.447213
vn 0.000000 -0.894427 0.447213
vn 0.000000 -0.894427 0.447213
vn 0.000000 -0.894427 0.447213
vn 0.000000 -0.894427 0.447213
vn -0.000000 0.000000 1.000000
vn -0.000000 0.000000 1.000000
vn -0.000000 0.000000 1.000000
vn -0.000000 0.000000 1.000000
vn 1.000000 0.000000 0.000000
vn 1.000000 0.000000 0.000000
vn 1.000000 0.000000 0.000000
vn 1.000000 0.000000 0.000000
vn -0.000000 0.000000 -1.000000
vn -0.000000 0.000000 -1.000000
vn -0.000000 0.000000 -1.000000
vn -0.000000 0.000000 -1.000000
vn -1.000000 0.000000 0.000000
vn -1.000000 0.000000 0.000000
vn -1.000000 0.000000 0.000000
vn -1.000000 0.000000 0.000000
vn 0.000000 1.000000 0.000000
vn 0.000000 1.000000 0.000000
vn 0.000000 1.000000 0.000000
vn 0.000000 1.000000 0.000000
vn 0.000000 -1.000000 0.000000
vn 0.000000 -1.000000 0.000000
vn 0.000000 -1.000000 0.000000
vn 0.000000 -1.000000 0.000000
vn -0.000000 0.000000 1.000000
vn -0.000000 0.000000 1.000000
vn -0.000000 0.000000 1.000000
vn -0.000000 0.000000 1.000000
vn 1.000000 0.000000 0.000000
vn 1.000000 0.000000 0.000000
vn 1.000000 0.000000 0.000000
vn 1.000000 0.000000 0.000000
vn -0.000000 0.000000 -1.000000
vn -0.000000 0.000000 -1.000000
vn -0.000000 0.000000 -1.000000
vn -0.000000 0.000000 -1.000000
vn -1.000000 0.000000 0.000000
vn -1.000000 0.000000 0.000000
vn -1.000000 0.000000 0.000000
vn -1.000000 0.000000 0.000000
vn 0.000000 1.000000 0.000000
vn 0.000000 1.000000 0.000000
vn 0.000000 1.000000 0.000000
vn 0.000000 1.000000 0.000000
vn 0.000000 -1.000000 0.000000
vn 0.000000 -1.000000 0.000000
vn 0.000000 -1.000000 0.000000
vn 0.000000 -1.000000 0.000000
vn -0.000000 0.000000 1.000000
vn -0.000000 0.000000 1.000000
vn -0.000000 0.000000 1.000000
vn -0.000000 0.000000 1.000000
vn 1.000000 0.000000 0.000000
vn 1.000000 0.000000 0.000000
vn 1.000000 0.000000 0.000000
vn 1.000000 0.000000 0.000000
vn -0.000000 0.000000 -1.000000
vn -0.000000 0.000000 -1.000000
vn -0.000000 0.000000 -1.000000
vn -0.000000 0.000000 -1.000000
vn -1.000000 0.000000 0.000000
vn -1.000000 0.000000 0.000000
vn -1.000000 0.000000 0.000000
vn -1.000000 0.000000 0.000000
vn 0.000000 1.000000 0.000000
vn 0.000000 1.000000 0.000000
vn 0.000000 1.000000 0.000000
vn 0.000000 1.000000 0.000000
vn 0.000000 -1.000000 0.000000
vn 0.000000 -1.000000 0.000000
vn 0.000000 -1.000000 0.000000
vn 0.000000 -1.000000 0.000000
# 120 vertex normals

g mat1
f 2/1/1 4/2/2 3/3/3 1/4/4
f 4/5/5 6/6/6 5/7/7 3/8/8
f 6/9/9 8/10/10 7/11/11 5/12/12
f 8/13/13 2/14/14 1/15/15 7/16/16
f 1/17/17 3/18/18 5/19/19 7/20/20
f 8/21/21 6/22/22 4/23/23 2/24/24
f 10/25/25 12/26/26 11/27/27 9/28/28
f 12/29/29 14/30/30 13/31/31 11/32/32
f 14/33/33 16/34/34 15/35/35 13/36/36
f 16/37/37 10/38/38 9/39/39 15/40/40
f 9/41/41 11/42/42 13/43/43 15/44/44
f 16/45/45 14/46/46 12/47/47 10/48/48
f 18/49/49 20/50/50 19/51/51 17/52/52
f 20/53/53 22/54/54 21/55/55 19/56/56
f 22/57/57 24/58/58 23/59/59 21/60/60
f 24/61/61 18/62/62 17/63/63 23/64/64
f 17/65/65 19/66/66 21/67/67 23/68/68
f 24/69/69 22/70/70 20/71/71 18/72/72
f 26/73/73 28/74/74 27/75/75 25/76/76
f 28/77/77 30/78/78 29/79/79 27/80/80
f 30/81/81 32/82/82 31/83/83 29/84/84
f 32/85/85 26/86/86 25/87/87 31/88/88
f 25/89/89 27/90/90 29/91/91 31/92/92
f 32/93/93 30/94/94 28/95/95 26/96/96
f 34/97/97 36/98/98 35/99/99 33/100/100
f 36/101/101 38/102/102 37/103/103 35/104/104
f 38/105/105 40/106/106 39/107/107 37/108/108
f 40/109/109 34/110/110 33/111/111 39/112/112
f 33/113/113 35/114/114 37/115/115 39/116/116
f 40/117/117 38/118/118 36/119/119 34/120/120
# 30 elements

